<?xml version="1.0" standalone="no"?><!DOCTYPE svg PUBLIC "-//W3C//DTD SVG 1.1//EN" "http://www.w3.org/Graphics/SVG/1.1/DTD/svg11.dtd"><svg t="1706490639436" class="icon" viewBox="0 0 1024 1024" version="1.1" xmlns="http://www.w3.org/2000/svg" p-id="5957" xmlns:xlink="http://www.w3.org/1999/xlink" width="200" height="200"><path d="M884 282.5L748.3 146.7c-25-25-65.5-25-90.5 0l-67.9 67.9-45.3 45.3-368.3 368.3c-10.6 10.6-17.1 24.5-18.5 39.5L144.3 817c-1.8 19.9 5.6 38.2 18.5 51 12.9 12.9 31.1 20.3 51 18.5l149.3-13.6c14.9-1.4 28.9-7.9 39.5-18.5l368.3-368.3 45.3-45.3L884 373c25-25 25-65.5 0-90.5zM208 822.8l7.1-77.8 70.7 70.7-77.8 7.1z m155.6-19.9L227.8 667.2l362-362L725.6 441l-362 361.9z m271.5-543L703 192l135.8 135.8-67.9 67.9-135.8-135.8z" fill="#1875F0" p-id="5958"></path></svg>