<?xml version="1.0" standalone="no"?><!DOCTYPE svg PUBLIC "-//W3C//DTD SVG 1.1//EN" "http://www.w3.org/Graphics/SVG/1.1/DTD/svg11.dtd"><svg t="1706452948762" class="icon" viewBox="0 0 1024 1024" version="1.1" xmlns="http://www.w3.org/2000/svg" p-id="7434" xmlns:xlink="http://www.w3.org/1999/xlink" width="200" height="200"><path d="M832 64H296a8 8 0 0 0-8 8V128c0 4.416 3.584 8 8 8h496v688c0 4.416 3.584 8 8 8h56a8 8 0 0 0 8-8V96A32 32 0 0 0 832 64z m-128 128H192a32 32 0 0 0-32 32v530.688a32 32 0 0 0 9.408 22.592l173.312 173.312a33.088 33.088 0 0 0 7.36 5.504v1.92h4.224c3.52 1.28 7.168 1.984 11.008 1.984H704a32 32 0 0 0 32-32v-704A32 32 0 0 0 704 192zM350.016 856.192l-86.144-86.208H350.08v86.208z m313.984 31.808H414.016v-142.016a40 40 0 0 0-40-40H232V264h432v624z" p-id="7435"></path></svg>