<?xml version="1.0" standalone="no"?><!DOCTYPE svg PUBLIC "-//W3C//DTD SVG 1.1//EN" "http://www.w3.org/Graphics/SVG/1.1/DTD/svg11.dtd"><svg t="1706670457656" class="icon" viewBox="0 0 1024 1024" version="1.1" xmlns="http://www.w3.org/2000/svg" p-id="14229" xmlns:xlink="http://www.w3.org/1999/xlink" width="200" height="200"><path d="M876.6976 729.7536V305.9712a185.9584 185.9584 0 0 0-185.8048-185.7536H328.1408A185.9584 185.9584 0 0 0 142.336 305.9712v423.7824a186.0096 186.0096 0 0 0 185.8048 185.8048h362.752a186.0096 186.0096 0 0 0 185.8048-185.8048z m-56.32 0a129.6384 129.6384 0 0 1-129.4848 129.4848H328.1408a129.6384 129.6384 0 0 1-129.4848-129.4848V305.9712a129.6384 129.6384 0 0 1 129.4848-129.4336h362.752a129.6384 129.6384 0 0 1 129.4848 129.4336z" fill="#231F20" p-id="14230"></path><path d="M676.352 675.84H342.6816a28.16 28.16 0 0 0 0 56.32h333.6704a28.16 28.16 0 0 0 0-56.32zM676.352 505.4976H342.6816a28.16 28.16 0 0 0 0 56.32h333.6704a28.16 28.16 0 0 0 0-56.32zM342.6816 391.5776h166.8608a28.16 28.16 0 0 0 0-56.32H342.6816a28.16 28.16 0 0 0 0 56.32z" fill="#231F20" p-id="14231"></path></svg>